<svg xmlns="http://www.w3.org/2000/svg" width="1052.3622" height="420">
   <g transform="translate(0,-400)">
      <g transform="matrix(11.579275,0,0,11.579275,-13202.559,-6634.9711)">
         <g transform="translate(-3295.9019,4.2249884)">
            <path style="fill:#24a54a;fill-opacity:1;stroke:#188f45;stroke-width:0.28113309;stroke-opacity:1" d="m 4463.4209,612.03016 h 10.3136 l -9.493,26.26064 c -1.2367,3.42104 2.2394,-17.70066 2.2887,-20.4259 h -0.1481 c -1.0857,3.21441 -2.4676,6.77812 -3.7508,9.78291 l -4.6392,10.86579 h -5.5276 l -4.1949,-10.69114 c -1.234,-3.03975 -2.4184,-6.67322 -3.3068,-9.95756 h -0.148 c -0.099,3.38906 -0.3455,7.37202 -0.5922,10.69132 l -0.7404,10.34183 h -6.6627 l 2.5664,-26.86789 h 9.0316 l 4.0963,10.09725 c 1.2339,3.24937 2.3197,6.39384 3.1587,9.46838 h 0.148 c 0.8884,-3.00461 2.0236,-6.25398 3.3068,-9.46838 z" />
            <path style="fill:#2461ae;fill-opacity:1;stroke:#0b53a2;stroke-width:0.28113309;stroke-opacity:1" d="m 4476.0582,638.8789 h -10.299 l 9.9376,-26.30668 c 1.2876,-3.40891 -2.6942,17.75285 -2.7435,20.47615 h 0.1479 c 1.0841,-3.21212 2.4641,-6.77337 3.7456,-9.77587 l 4.6325,-10.85824 h 5.5199 l 4.1891,10.68358 c 1.232,3.03765 2.4149,6.66866 3.302,9.95053 h 0.1478 c 0.099,-3.3866 0.3542,-7.36656 0.5914,-10.68376 l 0.7203,-10.0686 6.4694,1.85267 -2.3598,24.73022 h -9.0189 l -4.0907,-10.09004 c -1.232,-3.24692 -2.3162,-6.38928 -3.1541,-9.46171 h -0.1478 c -0.8871,3.00267 -2.0206,6.24958 -3.3021,9.46171 z" />
            <path style="fill:#8e55a2;fill-opacity:1;stroke:#824b9d;stroke-width:0.28113309;stroke-opacity:1" d="m 4507.6092,610.75118 c 13.6708,3.40206 18.7562,7.33564 18.9865,15.11741 0.2281,7.70041 -7.0722,11.23706 -19.1233,12.57315 -2.7063,0.30011 -2.6882,0.26918 -5.994,0.39991 0,0 0.3776,-3.24604 0.3776,-3.24604 0,0 3.2881,-0.70898 4.5148,-0.97764 4.3949,-0.96217 12.0399,-3.14166 12.0399,-9.01962 0,-6.28333 -5.7019,-9.33872 -11.8051,-11.30665 -8.9732,-2.89321 -32.6816,-9.24875 -32.6816,-9.24875 0,0 24.693,3.47059 33.6852,5.70823 z" />
         </g>
      </g>
   </g>
</svg>